<svg width="96" height="46" viewBox="0 0 96 46" fill="none" xmlns="http://www.w3.org/2000/svg">
<path d="M84.4029 17.0357V11.6438C57.4201 6.81211 32.7014 24.8785 5.41512 16.779V11.4104C32.7248 19.5099 57.4434 1.42022 84.4029 6.25192V0.836679C55.6694 -4.32181 29.4804 16.5689 0 4.05781V41.7311C1.82064 42.5014 3.6178 43.1316 5.39176 43.6685V22.1475C32.7014 30.2471 57.4203 12.1573 84.3798 17.0124M95.187 41.7778V4.1045C93.3664 3.33423 91.5689 2.704 89.795 2.16715V23.6881C62.4853 15.5886 37.7667 33.6783 10.8072 28.8466V34.2385C37.79 39.0935 62.5087 21.0038 89.795 29.08V34.4485C62.4853 26.349 37.7667 44.4387 10.8072 39.607V45.0223C39.564 50.1808 65.7297 29.3134 95.2101 41.8011" fill="#111111"/>
</svg>
